<mxfile host="app.diagrams.net" modified="2024-01-24T16:02:41.650Z" agent="Mozilla/5.0 (Windows NT 10.0; Win64; x64) AppleWebKit/537.36 (KHTML, like Gecko) Chrome/120.0.0.0 Safari/537.36" etag="oBOm1UOAX_Jz996VsbVI" version="22.1.22" type="device">
  <diagram id="R2lEEEUBdFMjLlhIrx00" name="Page-1">
    <mxGraphModel dx="2284" dy="1880" grid="1" gridSize="10" guides="1" tooltips="1" connect="1" arrows="1" fold="1" page="1" pageScale="1" pageWidth="850" pageHeight="1100" math="0" shadow="0" extFonts="Permanent Marker^https://fonts.googleapis.com/css?family=Permanent+Marker">
      <root>
        <mxCell id="0" />
        <mxCell id="1" parent="0" />
        <mxCell id="tg2goikRHz8_cYtZgMZs-1" value="Accidente geográfico" style="swimlane;childLayout=stackLayout;horizontal=1;startSize=50;horizontalStack=0;rounded=1;fontSize=14;fontStyle=0;strokeWidth=2;resizeParent=0;resizeLast=1;shadow=0;dashed=0;align=center;arcSize=4;whiteSpace=wrap;html=1;fillColor=#d5e8d4;strokeColor=#82b366;" parent="1" vertex="1">
          <mxGeometry x="345" y="140" width="160" height="170" as="geometry" />
        </mxCell>
        <mxCell id="tg2goikRHz8_cYtZgMZs-2" value="&lt;u&gt;IDAccidenteGeográfico&lt;br&gt;&lt;/u&gt;&lt;br&gt;Nombre&lt;br&gt;&lt;br&gt;Posición Vertical&lt;br&gt;&lt;br&gt;Posición Horizontal&lt;br&gt;&lt;br&gt;&lt;br&gt;" style="align=left;strokeColor=none;fillColor=none;spacingLeft=4;fontSize=12;verticalAlign=top;resizable=0;rotatable=0;part=1;html=1;" parent="tg2goikRHz8_cYtZgMZs-1" vertex="1">
          <mxGeometry y="50" width="160" height="120" as="geometry" />
        </mxCell>
        <mxCell id="tg2goikRHz8_cYtZgMZs-3" value="" style="triangle;whiteSpace=wrap;html=1;rotation=90;fillColor=#dae8fc;strokeColor=#6c8ebf;" parent="1" vertex="1">
          <mxGeometry x="395" y="370" width="60" height="80" as="geometry" />
        </mxCell>
        <mxCell id="tg2goikRHz8_cYtZgMZs-4" value="" style="endArrow=none;html=1;rounded=0;entryX=0.5;entryY=1;entryDx=0;entryDy=0;exitX=0;exitY=0.5;exitDx=0;exitDy=0;" parent="1" source="tg2goikRHz8_cYtZgMZs-3" target="tg2goikRHz8_cYtZgMZs-2" edge="1">
          <mxGeometry width="50" height="50" relative="1" as="geometry">
            <mxPoint x="280" y="430" as="sourcePoint" />
            <mxPoint x="330" y="380" as="targetPoint" />
          </mxGeometry>
        </mxCell>
        <mxCell id="tg2goikRHz8_cYtZgMZs-5" value="" style="endArrow=none;html=1;rounded=0;entryX=0.5;entryY=1;entryDx=0;entryDy=0;exitX=0.5;exitY=0;exitDx=0;exitDy=0;" parent="1" source="tg2goikRHz8_cYtZgMZs-6" target="tg2goikRHz8_cYtZgMZs-3" edge="1">
          <mxGeometry width="50" height="50" relative="1" as="geometry">
            <mxPoint x="300" y="480" as="sourcePoint" />
            <mxPoint x="330" y="380" as="targetPoint" />
          </mxGeometry>
        </mxCell>
        <mxCell id="tg2goikRHz8_cYtZgMZs-6" value="Río" style="swimlane;childLayout=stackLayout;horizontal=1;startSize=50;horizontalStack=0;rounded=1;fontSize=14;fontStyle=0;strokeWidth=2;resizeParent=0;resizeLast=1;shadow=0;dashed=0;align=center;arcSize=4;whiteSpace=wrap;html=1;fillColor=#d5e8d4;strokeColor=#82b366;" parent="1" vertex="1">
          <mxGeometry x="70" y="480" width="160" height="80" as="geometry" />
        </mxCell>
        <mxCell id="tg2goikRHz8_cYtZgMZs-7" value="Longitud" style="align=left;strokeColor=none;fillColor=none;spacingLeft=4;fontSize=12;verticalAlign=top;resizable=0;rotatable=0;part=1;html=1;" parent="tg2goikRHz8_cYtZgMZs-6" vertex="1">
          <mxGeometry y="50" width="160" height="30" as="geometry" />
        </mxCell>
        <mxCell id="tg2goikRHz8_cYtZgMZs-8" value="Montaña" style="swimlane;childLayout=stackLayout;horizontal=1;startSize=50;horizontalStack=0;rounded=1;fontSize=14;fontStyle=0;strokeWidth=2;resizeParent=0;resizeLast=1;shadow=0;dashed=0;align=center;arcSize=4;whiteSpace=wrap;html=1;fillColor=#d5e8d4;strokeColor=#82b366;" parent="1" vertex="1">
          <mxGeometry x="345" y="480" width="160" height="80" as="geometry" />
        </mxCell>
        <mxCell id="tg2goikRHz8_cYtZgMZs-9" value="Altitud" style="align=left;strokeColor=none;fillColor=none;spacingLeft=4;fontSize=12;verticalAlign=top;resizable=0;rotatable=0;part=1;html=1;" parent="tg2goikRHz8_cYtZgMZs-8" vertex="1">
          <mxGeometry y="50" width="160" height="30" as="geometry" />
        </mxCell>
        <mxCell id="tg2goikRHz8_cYtZgMZs-10" value="Lago" style="swimlane;childLayout=stackLayout;horizontal=1;startSize=50;horizontalStack=0;rounded=1;fontSize=14;fontStyle=0;strokeWidth=2;resizeParent=0;resizeLast=1;shadow=0;dashed=0;align=center;arcSize=4;whiteSpace=wrap;html=1;fillColor=#d5e8d4;strokeColor=#82b366;" parent="1" vertex="1">
          <mxGeometry x="630" y="480" width="160" height="80" as="geometry" />
        </mxCell>
        <mxCell id="tg2goikRHz8_cYtZgMZs-11" value="Extensión" style="align=left;strokeColor=none;fillColor=none;spacingLeft=4;fontSize=12;verticalAlign=top;resizable=0;rotatable=0;part=1;html=1;" parent="tg2goikRHz8_cYtZgMZs-10" vertex="1">
          <mxGeometry y="50" width="160" height="30" as="geometry" />
        </mxCell>
        <mxCell id="tg2goikRHz8_cYtZgMZs-12" value="" style="endArrow=none;html=1;rounded=0;entryX=0.5;entryY=0;entryDx=0;entryDy=0;exitX=0.5;exitY=0;exitDx=0;exitDy=0;" parent="1" source="tg2goikRHz8_cYtZgMZs-10" target="tg2goikRHz8_cYtZgMZs-3" edge="1">
          <mxGeometry width="50" height="50" relative="1" as="geometry">
            <mxPoint x="280" y="430" as="sourcePoint" />
            <mxPoint x="330" y="380" as="targetPoint" />
          </mxGeometry>
        </mxCell>
        <mxCell id="tg2goikRHz8_cYtZgMZs-13" value="" style="endArrow=none;html=1;rounded=0;entryX=1;entryY=0.5;entryDx=0;entryDy=0;exitX=0.5;exitY=0;exitDx=0;exitDy=0;" parent="1" source="tg2goikRHz8_cYtZgMZs-8" target="tg2goikRHz8_cYtZgMZs-3" edge="1">
          <mxGeometry width="50" height="50" relative="1" as="geometry">
            <mxPoint x="280" y="430" as="sourcePoint" />
            <mxPoint x="330" y="380" as="targetPoint" />
          </mxGeometry>
        </mxCell>
        <mxCell id="tg2goikRHz8_cYtZgMZs-14" value="País" style="swimlane;childLayout=stackLayout;horizontal=1;startSize=50;horizontalStack=0;rounded=1;fontSize=14;fontStyle=0;strokeWidth=2;resizeParent=0;resizeLast=1;shadow=0;dashed=0;align=center;arcSize=4;whiteSpace=wrap;html=1;fillColor=#d5e8d4;strokeColor=#82b366;" parent="1" vertex="1">
          <mxGeometry x="345" y="-200" width="160" height="140" as="geometry" />
        </mxCell>
        <mxCell id="tg2goikRHz8_cYtZgMZs-15" value="&lt;u&gt;Nombre&lt;/u&gt;&lt;br&gt;&lt;br&gt;Extensión&lt;br&gt;&lt;br&gt;Población" style="align=left;strokeColor=none;fillColor=none;spacingLeft=4;fontSize=12;verticalAlign=top;resizable=0;rotatable=0;part=1;html=1;" parent="tg2goikRHz8_cYtZgMZs-14" vertex="1">
          <mxGeometry y="50" width="160" height="90" as="geometry" />
        </mxCell>
        <mxCell id="tg2goikRHz8_cYtZgMZs-16" value="Localidad" style="swimlane;childLayout=stackLayout;horizontal=1;startSize=50;horizontalStack=0;rounded=1;fontSize=14;fontStyle=0;strokeWidth=2;resizeParent=0;resizeLast=1;shadow=0;dashed=0;align=center;arcSize=4;whiteSpace=wrap;html=1;fillColor=#d5e8d4;strokeColor=#82b366;" parent="1" vertex="1">
          <mxGeometry x="1070" y="170" width="160" height="110" as="geometry" />
        </mxCell>
        <mxCell id="tg2goikRHz8_cYtZgMZs-17" value="&lt;u&gt;IDLocalidad&lt;/u&gt;&lt;br&gt;&lt;br&gt;Nombre" style="align=left;strokeColor=none;fillColor=none;spacingLeft=4;fontSize=12;verticalAlign=top;resizable=0;rotatable=0;part=1;html=1;" parent="tg2goikRHz8_cYtZgMZs-16" vertex="1">
          <mxGeometry y="50" width="160" height="60" as="geometry" />
        </mxCell>
        <mxCell id="tg2goikRHz8_cYtZgMZs-18" value="" style="endArrow=none;html=1;rounded=0;entryX=0.5;entryY=1;entryDx=0;entryDy=0;exitX=0;exitY=0.5;exitDx=0;exitDy=0;" parent="1" edge="1">
          <mxGeometry width="50" height="50" relative="1" as="geometry">
            <mxPoint x="424" y="140" as="sourcePoint" />
            <mxPoint x="424" y="70" as="targetPoint" />
          </mxGeometry>
        </mxCell>
        <mxCell id="tg2goikRHz8_cYtZgMZs-19" value="Tiene" style="shape=rhombus;perimeter=rhombusPerimeter;whiteSpace=wrap;html=1;align=center;fillColor=#f8cecc;strokeColor=#b85450;" parent="1" vertex="1">
          <mxGeometry x="365" y="10" width="120" height="60" as="geometry" />
        </mxCell>
        <mxCell id="tg2goikRHz8_cYtZgMZs-20" value="" style="endArrow=none;html=1;rounded=0;entryX=0.5;entryY=1;entryDx=0;entryDy=0;exitX=0;exitY=0.5;exitDx=0;exitDy=0;" parent="1" edge="1">
          <mxGeometry width="50" height="50" relative="1" as="geometry">
            <mxPoint x="425" y="10" as="sourcePoint" />
            <mxPoint x="425" y="-60" as="targetPoint" />
          </mxGeometry>
        </mxCell>
        <mxCell id="tg2goikRHz8_cYtZgMZs-21" value="Contiene" style="shape=rhombus;perimeter=rhombusPerimeter;whiteSpace=wrap;html=1;align=center;fillColor=#f8cecc;strokeColor=#b85450;" parent="1" vertex="1">
          <mxGeometry x="850" y="-134" width="120" height="60" as="geometry" />
        </mxCell>
        <mxCell id="tg2goikRHz8_cYtZgMZs-22" value="Pasa" style="shape=rhombus;perimeter=rhombusPerimeter;whiteSpace=wrap;html=1;align=center;fillColor=#f8cecc;strokeColor=#b85450;" parent="1" vertex="1">
          <mxGeometry x="850" y="640" width="120" height="60" as="geometry" />
        </mxCell>
        <mxCell id="tg2goikRHz8_cYtZgMZs-23" value="" style="endArrow=none;html=1;rounded=0;exitX=0.5;exitY=1;exitDx=0;exitDy=0;entryX=0;entryY=0.5;entryDx=0;entryDy=0;" parent="1" source="tg2goikRHz8_cYtZgMZs-7" target="tg2goikRHz8_cYtZgMZs-22" edge="1">
          <mxGeometry width="50" height="50" relative="1" as="geometry">
            <mxPoint x="620" y="270" as="sourcePoint" />
            <mxPoint x="670" y="220" as="targetPoint" />
            <Array as="points">
              <mxPoint x="150" y="670" />
            </Array>
          </mxGeometry>
        </mxCell>
        <mxCell id="tg2goikRHz8_cYtZgMZs-24" value="" style="endArrow=none;html=1;rounded=0;entryX=0.5;entryY=0;entryDx=0;entryDy=0;exitX=0.5;exitY=1;exitDx=0;exitDy=0;" parent="1" source="tg2goikRHz8_cYtZgMZs-17" target="tg2goikRHz8_cYtZgMZs-22" edge="1">
          <mxGeometry width="50" height="50" relative="1" as="geometry">
            <mxPoint x="620" y="270" as="sourcePoint" />
            <mxPoint x="670" y="220" as="targetPoint" />
            <Array as="points">
              <mxPoint x="1150" y="480" />
              <mxPoint x="910" y="480" />
            </Array>
          </mxGeometry>
        </mxCell>
        <mxCell id="tg2goikRHz8_cYtZgMZs-25" value="" style="endArrow=none;html=1;rounded=0;entryX=1;entryY=0.5;entryDx=0;entryDy=0;exitX=0;exitY=0.5;exitDx=0;exitDy=0;" parent="1" source="tg2goikRHz8_cYtZgMZs-21" target="tg2goikRHz8_cYtZgMZs-15" edge="1">
          <mxGeometry width="50" height="50" relative="1" as="geometry">
            <mxPoint x="620" y="270" as="sourcePoint" />
            <mxPoint x="670" y="220" as="targetPoint" />
          </mxGeometry>
        </mxCell>
        <mxCell id="tg2goikRHz8_cYtZgMZs-26" value="" style="endArrow=none;html=1;rounded=0;entryX=1;entryY=0.5;entryDx=0;entryDy=0;exitX=0.5;exitY=0;exitDx=0;exitDy=0;" parent="1" source="tg2goikRHz8_cYtZgMZs-16" target="tg2goikRHz8_cYtZgMZs-21" edge="1">
          <mxGeometry width="50" height="50" relative="1" as="geometry">
            <mxPoint x="620" y="270" as="sourcePoint" />
            <mxPoint x="670" y="220" as="targetPoint" />
            <Array as="points">
              <mxPoint x="1150" y="-104" />
            </Array>
          </mxGeometry>
        </mxCell>
        <mxCell id="tg2goikRHz8_cYtZgMZs-27" value="N:M" style="text;html=1;strokeColor=none;fillColor=none;align=center;verticalAlign=middle;whiteSpace=wrap;rounded=0;" parent="1" vertex="1">
          <mxGeometry x="485" y="25" width="60" height="30" as="geometry" />
        </mxCell>
        <mxCell id="tg2goikRHz8_cYtZgMZs-28" value="(0,N)" style="text;html=1;strokeColor=none;fillColor=none;align=center;verticalAlign=middle;whiteSpace=wrap;rounded=0;" parent="1" vertex="1">
          <mxGeometry x="440" y="-50" width="60" height="30" as="geometry" />
        </mxCell>
        <mxCell id="tg2goikRHz8_cYtZgMZs-29" value="(0,M)" style="text;html=1;strokeColor=none;fillColor=none;align=center;verticalAlign=middle;whiteSpace=wrap;rounded=0;" parent="1" vertex="1">
          <mxGeometry x="440" y="100" width="60" height="30" as="geometry" />
        </mxCell>
        <mxCell id="tg2goikRHz8_cYtZgMZs-30" value="N:M" style="text;html=1;strokeColor=none;fillColor=none;align=center;verticalAlign=middle;whiteSpace=wrap;rounded=0;" parent="1" vertex="1">
          <mxGeometry x="980" y="655" width="60" height="30" as="geometry" />
        </mxCell>
        <mxCell id="tg2goikRHz8_cYtZgMZs-31" value="(0,M)" style="text;html=1;strokeColor=none;fillColor=none;align=center;verticalAlign=middle;whiteSpace=wrap;rounded=0;" parent="1" vertex="1">
          <mxGeometry x="1160" y="290" width="60" height="30" as="geometry" />
        </mxCell>
        <mxCell id="tg2goikRHz8_cYtZgMZs-32" value="(0,N)" style="text;html=1;strokeColor=none;fillColor=none;align=center;verticalAlign=middle;whiteSpace=wrap;rounded=0;" parent="1" vertex="1">
          <mxGeometry x="160" y="570" width="60" height="30" as="geometry" />
        </mxCell>
        <mxCell id="tg2goikRHz8_cYtZgMZs-34" value="N:M" style="text;html=1;strokeColor=none;fillColor=none;align=center;verticalAlign=middle;whiteSpace=wrap;rounded=0;" parent="1" vertex="1">
          <mxGeometry x="880" y="-170" width="60" height="30" as="geometry" />
        </mxCell>
        <mxCell id="tg2goikRHz8_cYtZgMZs-35" value="(1,N)" style="text;html=1;strokeColor=none;fillColor=none;align=center;verticalAlign=middle;whiteSpace=wrap;rounded=0;" parent="1" vertex="1">
          <mxGeometry x="510" y="-140" width="60" height="30" as="geometry" />
        </mxCell>
        <mxCell id="tg2goikRHz8_cYtZgMZs-36" value="(1,N)" style="text;html=1;strokeColor=none;fillColor=none;align=center;verticalAlign=middle;whiteSpace=wrap;rounded=0;" parent="1" vertex="1">
          <mxGeometry x="1150" y="130" width="60" height="30" as="geometry" />
        </mxCell>
        <mxCell id="tg2goikRHz8_cYtZgMZs-37" value="Curso" style="swimlane;childLayout=stackLayout;horizontal=1;startSize=50;horizontalStack=0;rounded=1;fontSize=14;fontStyle=0;strokeWidth=2;resizeParent=0;resizeLast=1;shadow=0;dashed=0;align=center;arcSize=4;whiteSpace=wrap;html=1;fillColor=#d5e8d4;strokeColor=#82b366;" parent="1" vertex="1">
          <mxGeometry x="800" y="1000" width="160" height="200" as="geometry" />
        </mxCell>
        <mxCell id="tg2goikRHz8_cYtZgMZs-38" value="&lt;u&gt;CodCurso&lt;/u&gt;&lt;br&gt;&lt;br&gt;Nombre&lt;br&gt;&lt;br&gt;Descripción&lt;br&gt;&lt;br&gt;NºHoras&lt;br&gt;&lt;br&gt;Coste&lt;br&gt;" style="align=left;strokeColor=none;fillColor=none;spacingLeft=4;fontSize=12;verticalAlign=top;resizable=0;rotatable=0;part=1;html=1;" parent="tg2goikRHz8_cYtZgMZs-37" vertex="1">
          <mxGeometry y="50" width="160" height="150" as="geometry" />
        </mxCell>
        <mxCell id="tg2goikRHz8_cYtZgMZs-39" value="Requiere" style="shape=rhombus;perimeter=rhombusPerimeter;whiteSpace=wrap;html=1;align=center;fillColor=#f8cecc;strokeColor=#b85450;" parent="1" vertex="1">
          <mxGeometry x="1110" y="1095" width="120" height="60" as="geometry" />
        </mxCell>
        <mxCell id="tg2goikRHz8_cYtZgMZs-40" value="" style="endArrow=none;html=1;rounded=0;entryX=0;entryY=0.5;entryDx=0;entryDy=0;exitX=1;exitY=0.5;exitDx=0;exitDy=0;" parent="1" source="tg2goikRHz8_cYtZgMZs-38" target="tg2goikRHz8_cYtZgMZs-39" edge="1">
          <mxGeometry width="50" height="50" relative="1" as="geometry">
            <mxPoint x="1000" y="1100" as="sourcePoint" />
            <mxPoint x="1050" y="1080" as="targetPoint" />
          </mxGeometry>
        </mxCell>
        <mxCell id="tg2goikRHz8_cYtZgMZs-42" value="" style="endArrow=none;html=1;rounded=0;entryX=0.5;entryY=0;entryDx=0;entryDy=0;exitX=0.5;exitY=0;exitDx=0;exitDy=0;" parent="1" source="tg2goikRHz8_cYtZgMZs-37" target="tg2goikRHz8_cYtZgMZs-39" edge="1">
          <mxGeometry width="50" height="50" relative="1" as="geometry">
            <mxPoint x="1080" y="930" as="sourcePoint" />
            <mxPoint x="1130" y="880" as="targetPoint" />
            <Array as="points">
              <mxPoint x="880" y="920" />
              <mxPoint x="1170" y="920" />
            </Array>
          </mxGeometry>
        </mxCell>
        <mxCell id="tg2goikRHz8_cYtZgMZs-44" value="N:M" style="text;html=1;strokeColor=none;fillColor=none;align=center;verticalAlign=middle;whiteSpace=wrap;rounded=0;" parent="1" vertex="1">
          <mxGeometry x="1220" y="1110" width="60" height="30" as="geometry" />
        </mxCell>
        <mxCell id="tg2goikRHz8_cYtZgMZs-45" value="(0,N)" style="text;html=1;strokeColor=none;fillColor=none;align=center;verticalAlign=middle;whiteSpace=wrap;rounded=0;" parent="1" vertex="1">
          <mxGeometry x="950" y="1100" width="60" height="30" as="geometry" />
        </mxCell>
        <mxCell id="tg2goikRHz8_cYtZgMZs-46" value="(0,M)" style="text;html=1;strokeColor=none;fillColor=none;align=center;verticalAlign=middle;whiteSpace=wrap;rounded=0;" parent="1" vertex="1">
          <mxGeometry x="880" y="960" width="60" height="30" as="geometry" />
        </mxCell>
        <mxCell id="tg2goikRHz8_cYtZgMZs-47" value="Tipo" style="ellipse;whiteSpace=wrap;html=1;align=center;fillColor=#fff2cc;strokeColor=#d6b656;" parent="1" vertex="1">
          <mxGeometry x="1120" y="1220" width="100" height="40" as="geometry" />
        </mxCell>
        <mxCell id="tg2goikRHz8_cYtZgMZs-48" value="" style="endArrow=none;html=1;rounded=0;entryX=0.5;entryY=1;entryDx=0;entryDy=0;exitX=0.5;exitY=0;exitDx=0;exitDy=0;" parent="1" source="tg2goikRHz8_cYtZgMZs-47" target="tg2goikRHz8_cYtZgMZs-39" edge="1">
          <mxGeometry width="50" height="50" relative="1" as="geometry">
            <mxPoint x="1150" y="1100" as="sourcePoint" />
            <mxPoint x="1200" y="1050" as="targetPoint" />
          </mxGeometry>
        </mxCell>
        <mxCell id="tg2goikRHz8_cYtZgMZs-51" value="" style="endArrow=none;html=1;rounded=0;entryX=0.5;entryY=1;entryDx=0;entryDy=0;exitX=0;exitY=0.5;exitDx=0;exitDy=0;" parent="1" target="tg2goikRHz8_cYtZgMZs-38" edge="1">
          <mxGeometry width="50" height="50" relative="1" as="geometry">
            <mxPoint x="880" y="1280" as="sourcePoint" />
            <mxPoint x="880" y="1210" as="targetPoint" />
          </mxGeometry>
        </mxCell>
        <mxCell id="tg2goikRHz8_cYtZgMZs-52" value="Imparte" style="shape=rhombus;perimeter=rhombusPerimeter;whiteSpace=wrap;html=1;align=center;fillColor=#f8cecc;strokeColor=#b85450;" parent="1" vertex="1">
          <mxGeometry x="820" y="1280" width="120" height="60" as="geometry" />
        </mxCell>
        <mxCell id="tg2goikRHz8_cYtZgMZs-54" value="Fecha" style="ellipse;whiteSpace=wrap;html=1;align=center;fillColor=#fff2cc;strokeColor=#d6b656;" parent="1" vertex="1">
          <mxGeometry x="975" y="1250" width="100" height="40" as="geometry" />
        </mxCell>
        <mxCell id="tg2goikRHz8_cYtZgMZs-55" value="" style="endArrow=none;html=1;rounded=0;entryX=1;entryY=0;entryDx=0;entryDy=0;exitX=0;exitY=0.5;exitDx=0;exitDy=0;" parent="1" source="tg2goikRHz8_cYtZgMZs-54" target="tg2goikRHz8_cYtZgMZs-52" edge="1">
          <mxGeometry width="50" height="50" relative="1" as="geometry">
            <mxPoint x="959.17" y="1370" as="sourcePoint" />
            <mxPoint x="959.17" y="1320" as="targetPoint" />
          </mxGeometry>
        </mxCell>
        <mxCell id="tg2goikRHz8_cYtZgMZs-56" value="Lugar" style="ellipse;whiteSpace=wrap;html=1;align=center;fillColor=#fff2cc;strokeColor=#d6b656;" parent="1" vertex="1">
          <mxGeometry x="690" y="1250" width="100" height="40" as="geometry" />
        </mxCell>
        <mxCell id="tg2goikRHz8_cYtZgMZs-57" value="" style="endArrow=none;html=1;rounded=0;entryX=1;entryY=0.5;entryDx=0;entryDy=0;exitX=0;exitY=0;exitDx=0;exitDy=0;" parent="1" source="tg2goikRHz8_cYtZgMZs-52" target="tg2goikRHz8_cYtZgMZs-56" edge="1">
          <mxGeometry width="50" height="50" relative="1" as="geometry">
            <mxPoint x="790" y="1330" as="sourcePoint" />
            <mxPoint x="750" y="1309.58" as="targetPoint" />
          </mxGeometry>
        </mxCell>
        <mxCell id="tg2goikRHz8_cYtZgMZs-58" value="Horario" style="ellipse;whiteSpace=wrap;html=1;align=center;fillColor=#fff2cc;strokeColor=#d6b656;" parent="1" vertex="1">
          <mxGeometry x="690" y="1330" width="100" height="40" as="geometry" />
        </mxCell>
        <mxCell id="tg2goikRHz8_cYtZgMZs-59" value="" style="endArrow=none;html=1;rounded=0;entryX=0;entryY=1;entryDx=0;entryDy=0;exitX=1;exitY=0.5;exitDx=0;exitDy=0;" parent="1" source="tg2goikRHz8_cYtZgMZs-58" target="tg2goikRHz8_cYtZgMZs-52" edge="1">
          <mxGeometry width="50" height="50" relative="1" as="geometry">
            <mxPoint x="850" y="1280" as="sourcePoint" />
            <mxPoint x="900" y="1230" as="targetPoint" />
          </mxGeometry>
        </mxCell>
        <mxCell id="tg2goikRHz8_cYtZgMZs-68" value="NºEdición" style="ellipse;whiteSpace=wrap;html=1;align=center;fillColor=#fff2cc;strokeColor=#d6b656;" parent="1" vertex="1">
          <mxGeometry x="960" y="1330" width="100" height="40" as="geometry" />
        </mxCell>
        <mxCell id="tg2goikRHz8_cYtZgMZs-69" value="" style="endArrow=none;html=1;rounded=0;entryX=1;entryY=1;entryDx=0;entryDy=0;exitX=0;exitY=0.5;exitDx=0;exitDy=0;" parent="1" source="tg2goikRHz8_cYtZgMZs-68" target="tg2goikRHz8_cYtZgMZs-52" edge="1">
          <mxGeometry width="50" height="50" relative="1" as="geometry">
            <mxPoint x="760" y="1270" as="sourcePoint" />
            <mxPoint x="810" y="1220" as="targetPoint" />
          </mxGeometry>
        </mxCell>
        <mxCell id="tg2goikRHz8_cYtZgMZs-71" value="" style="triangle;whiteSpace=wrap;html=1;rotation=90;fillColor=#dae8fc;strokeColor=#6c8ebf;" parent="1" vertex="1">
          <mxGeometry x="210" y="1420" width="60" height="80" as="geometry" />
        </mxCell>
        <mxCell id="tg2goikRHz8_cYtZgMZs-72" value="Personal" style="swimlane;childLayout=stackLayout;horizontal=1;startSize=50;horizontalStack=0;rounded=1;fontSize=14;fontStyle=0;strokeWidth=2;resizeParent=0;resizeLast=1;shadow=0;dashed=0;align=center;arcSize=4;whiteSpace=wrap;html=1;fillColor=#d5e8d4;strokeColor=#82b366;" parent="1" vertex="1">
          <mxGeometry x="160" y="990" width="160" height="370" as="geometry" />
        </mxCell>
        <mxCell id="tg2goikRHz8_cYtZgMZs-73" value="&lt;u&gt;CodEmpleado&lt;/u&gt;&lt;br&gt;&lt;br&gt;Nombre&lt;br&gt;&lt;br&gt;Apellidos&lt;br&gt;&lt;br&gt;Dirección&lt;br&gt;&lt;br&gt;Teléfono&lt;br&gt;&lt;br&gt;&lt;b&gt;NIF&lt;br&gt;&lt;/b&gt;&lt;br&gt;Fecha de Nacimiento&lt;br&gt;&lt;br&gt;Nacionalidad (multivaluado)&lt;br&gt;&lt;br&gt;Sexo&lt;br&gt;&lt;br&gt;Firma&lt;br&gt;&lt;br&gt;Salario&lt;br&gt;" style="align=left;strokeColor=none;fillColor=none;spacingLeft=4;fontSize=12;verticalAlign=top;resizable=0;rotatable=0;part=1;html=1;" parent="tg2goikRHz8_cYtZgMZs-72" vertex="1">
          <mxGeometry y="50" width="160" height="320" as="geometry" />
        </mxCell>
        <mxCell id="tg2goikRHz8_cYtZgMZs-74" value="" style="endArrow=none;html=1;rounded=0;entryX=0.5;entryY=1;entryDx=0;entryDy=0;exitX=0;exitY=0.5;exitDx=0;exitDy=0;" parent="1" source="tg2goikRHz8_cYtZgMZs-71" target="tg2goikRHz8_cYtZgMZs-73" edge="1">
          <mxGeometry width="50" height="50" relative="1" as="geometry">
            <mxPoint x="770" y="1450" as="sourcePoint" />
            <mxPoint x="820" y="1400" as="targetPoint" />
          </mxGeometry>
        </mxCell>
        <mxCell id="tg2goikRHz8_cYtZgMZs-75" value="Capacitado" style="swimlane;childLayout=stackLayout;horizontal=1;startSize=50;horizontalStack=0;rounded=1;fontSize=14;fontStyle=0;strokeWidth=2;resizeParent=0;resizeLast=1;shadow=0;dashed=0;align=center;arcSize=4;whiteSpace=wrap;html=1;fillColor=#d5e8d4;strokeColor=#82b366;" parent="1" vertex="1">
          <mxGeometry x="330" y="1500" width="160" height="50" as="geometry" />
        </mxCell>
        <mxCell id="tg2goikRHz8_cYtZgMZs-77" value="" style="endArrow=none;html=1;rounded=0;entryX=0.5;entryY=0;entryDx=0;entryDy=0;exitX=0.5;exitY=0;exitDx=0;exitDy=0;" parent="1" source="tg2goikRHz8_cYtZgMZs-71" target="tg2goikRHz8_cYtZgMZs-75" edge="1">
          <mxGeometry width="50" height="50" relative="1" as="geometry">
            <mxPoint x="280" y="1480" as="sourcePoint" />
            <mxPoint x="430" y="1430" as="targetPoint" />
          </mxGeometry>
        </mxCell>
        <mxCell id="tg2goikRHz8_cYtZgMZs-78" value="No capacitado" style="swimlane;childLayout=stackLayout;horizontal=1;startSize=50;horizontalStack=0;rounded=1;fontSize=14;fontStyle=0;strokeWidth=2;resizeParent=0;resizeLast=1;shadow=0;dashed=0;align=center;arcSize=4;whiteSpace=wrap;html=1;fillColor=#d5e8d4;strokeColor=#82b366;" parent="1" vertex="1">
          <mxGeometry y="1500" width="160" height="50" as="geometry" />
        </mxCell>
        <mxCell id="tg2goikRHz8_cYtZgMZs-79" value="" style="endArrow=none;html=1;rounded=0;entryX=0.5;entryY=1;entryDx=0;entryDy=0;exitX=0.5;exitY=0;exitDx=0;exitDy=0;" parent="1" source="tg2goikRHz8_cYtZgMZs-78" target="tg2goikRHz8_cYtZgMZs-71" edge="1">
          <mxGeometry width="50" height="50" relative="1" as="geometry">
            <mxPoint x="350" y="1370" as="sourcePoint" />
            <mxPoint x="400" y="1320" as="targetPoint" />
          </mxGeometry>
        </mxCell>
        <mxCell id="tg2goikRHz8_cYtZgMZs-80" value="" style="endArrow=none;html=1;rounded=0;exitX=1;exitY=0.5;exitDx=0;exitDy=0;entryX=0.5;entryY=1;entryDx=0;entryDy=0;" parent="1" source="tg2goikRHz8_cYtZgMZs-75" target="tg2goikRHz8_cYtZgMZs-52" edge="1">
          <mxGeometry width="50" height="50" relative="1" as="geometry">
            <mxPoint x="440" y="1350" as="sourcePoint" />
            <mxPoint x="490" y="1300" as="targetPoint" />
            <Array as="points">
              <mxPoint x="880" y="1525" />
            </Array>
          </mxGeometry>
        </mxCell>
        <mxCell id="tg2goikRHz8_cYtZgMZs-81" value="N:M" style="text;html=1;strokeColor=none;fillColor=none;align=center;verticalAlign=middle;whiteSpace=wrap;rounded=0;" parent="1" vertex="1">
          <mxGeometry x="880" y="1255" width="60" height="30" as="geometry" />
        </mxCell>
        <mxCell id="tg2goikRHz8_cYtZgMZs-82" value="(1,1)" style="text;html=1;strokeColor=none;fillColor=none;align=center;verticalAlign=middle;whiteSpace=wrap;rounded=0;" parent="1" vertex="1">
          <mxGeometry x="880" y="1200" width="60" height="30" as="geometry" />
        </mxCell>
        <mxCell id="tg2goikRHz8_cYtZgMZs-83" value="(0,1)" style="text;html=1;strokeColor=none;fillColor=none;align=center;verticalAlign=middle;whiteSpace=wrap;rounded=0;" parent="1" vertex="1">
          <mxGeometry x="480" y="1500" width="60" height="30" as="geometry" />
        </mxCell>
        <mxCell id="WGQpxipnsdEiq2CwBA3A-1" value="" style="endArrow=none;html=1;rounded=0;exitX=0;exitY=0.5;exitDx=0;exitDy=0;entryX=0;entryY=0.5;entryDx=0;entryDy=0;" edge="1" parent="1" target="WGQpxipnsdEiq2CwBA3A-2">
          <mxGeometry width="50" height="50" relative="1" as="geometry">
            <mxPoint x="239.5" y="990" as="sourcePoint" />
            <mxPoint x="440" y="920" as="targetPoint" />
            <Array as="points">
              <mxPoint x="240" y="920" />
            </Array>
          </mxGeometry>
        </mxCell>
        <mxCell id="WGQpxipnsdEiq2CwBA3A-2" value="Imparte" style="shape=rhombus;perimeter=rhombusPerimeter;whiteSpace=wrap;html=1;align=center;fillColor=#f8cecc;strokeColor=#b85450;" vertex="1" parent="1">
          <mxGeometry x="490" y="890" width="120" height="60" as="geometry" />
        </mxCell>
        <mxCell id="WGQpxipnsdEiq2CwBA3A-3" value="" style="endArrow=none;html=1;rounded=0;entryX=0.25;entryY=0;entryDx=0;entryDy=0;exitX=1;exitY=0.5;exitDx=0;exitDy=0;" edge="1" parent="1" source="WGQpxipnsdEiq2CwBA3A-2" target="tg2goikRHz8_cYtZgMZs-37">
          <mxGeometry width="50" height="50" relative="1" as="geometry">
            <mxPoint x="520" y="1280" as="sourcePoint" />
            <mxPoint x="570" y="1230" as="targetPoint" />
            <Array as="points">
              <mxPoint x="840" y="920" />
            </Array>
          </mxGeometry>
        </mxCell>
        <mxCell id="WGQpxipnsdEiq2CwBA3A-4" value="&lt;blockquote style=&quot;margin: 0 0 0 40px; border: none; padding: 0px;&quot;&gt;(0,N)&lt;/blockquote&gt;" style="text;html=1;strokeColor=none;fillColor=none;align=center;verticalAlign=middle;whiteSpace=wrap;rounded=0;" vertex="1" parent="1">
          <mxGeometry x="240" y="960" width="60" height="30" as="geometry" />
        </mxCell>
        <mxCell id="WGQpxipnsdEiq2CwBA3A-5" value="N:M" style="text;html=1;strokeColor=none;fillColor=none;align=center;verticalAlign=middle;whiteSpace=wrap;rounded=0;" vertex="1" parent="1">
          <mxGeometry x="520" y="850" width="60" height="30" as="geometry" />
        </mxCell>
        <mxCell id="WGQpxipnsdEiq2CwBA3A-6" value="&lt;blockquote style=&quot;margin: 0 0 0 40px; border: none; padding: 0px;&quot;&gt;(1,M)&lt;/blockquote&gt;" style="text;html=1;strokeColor=none;fillColor=none;align=center;verticalAlign=middle;whiteSpace=wrap;rounded=0;" vertex="1" parent="1">
          <mxGeometry x="770" y="970" width="60" height="30" as="geometry" />
        </mxCell>
      </root>
    </mxGraphModel>
  </diagram>
</mxfile>
